<?xml version="1.0" encoding="UTF-8"?>
<svg version="1.1" xmlns="http://www.w3.org/2000/svg" width="146" height="146">
<path d="M0 0 C48.18 0 96.36 0 146 0 C146 48.18 146 96.36 146 146 C97.82 146 49.64 146 0 146 C0 97.82 0 49.64 0 0 Z " fill="#AC61C4" transform="translate(0,0)"/>
<path d="M0 0 C2.475 0.495 2.475 0.495 5 1 C5 1.66 5 2.32 5 3 C5.66 3 6.32 3 7 3 C7.495 8.94 7.495 8.94 8 15 C9.14597656 14.96519531 10.29195313 14.93039063 11.47265625 14.89453125 C13.00258939 14.86637297 14.53253854 14.83907501 16.0625 14.8125 C17.19075195 14.77479492 17.19075195 14.77479492 18.34179688 14.73632812 C25.20742855 14.64716408 29.94925773 16.60364465 35.8125 20.1875 C38.67863253 22.16476741 38.67863253 22.16476741 41 22 C41.99 19.525 41.99 19.525 43 17 C43.66 17 44.32 17 45 17 C45.4640625 15.824375 45.4640625 15.824375 45.9375 14.625 C47 12 47 12 48 10 C49.66611905 9.957279 51.33382885 9.95936168 53 10 C54 11 54 11 54.375 14.4375 C54.35490118 19.97472599 51.69526628 24.30253592 49 29 C49.60714844 29.25652344 50.21429688 29.51304688 50.83984375 29.77734375 C53.23142595 31.13098793 54.10912296 32.26491715 55.5625 34.5625 C57.50563298 37.64072209 57.50563298 37.64072209 61 39 C64.03309035 44.83208312 63.93627689 51.38256658 62.3125 57.65625 C60.39053002 62.84556894 57.78357418 67.04726068 54.26953125 71.30859375 C52.79507856 73.08713399 52.79507856 73.08713399 52 76 C51.34 76 50.68 76 50 76 C50.18464366 80.34184202 50.18464366 80.34184202 52 84 C51.71269945 86.33944736 51.38063221 88.6739143 51 91 C48.625 91.125 48.625 91.125 46 91 C43.8614515 88.8614515 43.57344937 87.86724686 43 85 C40.69 85 38.38 85 36 85 C35.505 86.485 35.505 86.485 35 88 C32.77734375 89.0625 32.77734375 89.0625 29.9375 90 C28.94363281 90.33644531 27.94976562 90.67289062 26.92578125 91.01953125 C25.96027344 91.34308594 24.99476562 91.66664062 24 92 C22.53899522 92.55552443 21.08025544 93.11708439 19.625 93.6875 C16.70971935 94.74303265 14.05131565 95.52323193 11 96 C10.67 98.97 10.34 101.94 10 105 C8.35 105.33 6.7 105.66 5 106 C5 103.03 5 100.06 5 97 C4.32533691 96.98541748 3.65067383 96.97083496 2.95556641 96.95581055 C-0.15514582 96.88050417 -3.26487969 96.78412156 -6.375 96.6875 C-7.43589844 96.66494141 -8.49679688 96.64238281 -9.58984375 96.61914062 C-15.67673596 96.41375469 -20.99953337 95.71793198 -26.76806641 93.72973633 C-29.15781659 92.94840147 -31.52868204 92.45143322 -34 92 C-34.45375 92.94875 -34.9075 93.8975 -35.375 94.875 C-37 98 -37 98 -39 100 C-40.32 100 -41.64 100 -43 100 C-42.22095672 89.44191344 -42.22095672 89.44191344 -40 85 C-41.11375 84.62875 -41.11375 84.62875 -42.25 84.25 C-45.24840999 82.88708637 -46.87959545 81.49904822 -49 79 C-49.33 78.01 -49.66 77.02 -50 76 C-50.99 75.34 -51.98 74.68 -53 74 C-55.43541555 69.55010492 -56.48263877 65.06770711 -56 60 C-55.67 59.34 -55.34 58.68 -55 58 C-54.34 58 -53.68 58 -53 58 C-52.89042969 57.42894531 -52.78085937 56.85789063 -52.66796875 56.26953125 C-50.77338445 49.83237639 -45.63150554 44.30265599 -41.00390625 39.60546875 C-39.78412345 38.01988043 -39.78412345 38.01988043 -40.2109375 35.9296875 C-40.93830224 33.79572322 -40.93830224 33.79572322 -43.0625 31.9375 C-43.701875 31.298125 -44.34125 30.65875 -45 30 C-45 29.01 -45 28.02 -45 27 C-45.66 27 -46.32 27 -47 27 C-47 25.68 -47 24.36 -47 23 C-44.4375 22.5625 -44.4375 22.5625 -41 23 C-39.21875 24.59375 -39.21875 24.59375 -37.4375 26.5625 C-34.96638219 29.46592748 -34.96638219 29.46592748 -31.375 30.1875 C-28.92797438 29.06766043 -28.92797438 29.06766043 -26.8125 27.25 C-19.80850079 21.64680064 -10.06367668 17 -1 17 C-1.01160156 16.02417969 -1.02320313 15.04835938 -1.03515625 14.04296875 C-1.04417969 12.77066406 -1.05320313 11.49835937 -1.0625 10.1875 C-1.07410156 8.92292969 -1.08570313 7.65835937 -1.09765625 6.35546875 C-1 3 -1 3 0 0 Z " fill="#A961C1" transform="translate(66,18)"/>
<path d="M0 0 C2.475 0.495 2.475 0.495 5 1 C5 1.66 5 2.32 5 3 C5.66 3 6.32 3 7 3 C7.495 8.94 7.495 8.94 8 15 C9.14597656 14.96519531 10.29195313 14.93039063 11.47265625 14.89453125 C13.00258939 14.86637297 14.53253854 14.83907501 16.0625 14.8125 C17.19075195 14.77479492 17.19075195 14.77479492 18.34179688 14.73632812 C25.20742855 14.64716408 29.94925773 16.60364465 35.8125 20.1875 C38.67863253 22.16476741 38.67863253 22.16476741 41 22 C41.99 19.525 41.99 19.525 43 17 C43.66 17 44.32 17 45 17 C45.4640625 15.824375 45.4640625 15.824375 45.9375 14.625 C47 12 47 12 48 10 C49.66611905 9.957279 51.33382885 9.95936168 53 10 C54 11 54 11 54.375 14.4375 C54.35490118 19.97472599 51.69526628 24.30253592 49 29 C49.60714844 29.25652344 50.21429688 29.51304688 50.83984375 29.77734375 C53.23142595 31.13098793 54.10912296 32.26491715 55.5625 34.5625 C57.50563298 37.64072209 57.50563298 37.64072209 61 39 C64.03309035 44.83208312 63.93627689 51.38256658 62.3125 57.65625 C60.39053002 62.84556894 57.78357418 67.04726068 54.26953125 71.30859375 C52.79507856 73.08713399 52.79507856 73.08713399 52 76 C51.34 76 50.68 76 50 76 C50.18464366 80.34184202 50.18464366 80.34184202 52 84 C51.71269945 86.33944736 51.38063221 88.6739143 51 91 C48.625 91.125 48.625 91.125 46 91 C43.8614515 88.8614515 43.57344937 87.86724686 43 85 C40.69 85 38.38 85 36 85 C35.505 86.485 35.505 86.485 35 88 C32.77734375 89.0625 32.77734375 89.0625 29.9375 90 C28.94363281 90.33644531 27.94976562 90.67289062 26.92578125 91.01953125 C25.96027344 91.34308594 24.99476562 91.66664062 24 92 C22.53899522 92.55552443 21.08025544 93.11708439 19.625 93.6875 C16.70971935 94.74303265 14.05131565 95.52323193 11 96 C10.67 98.97 10.34 101.94 10 105 C8.35 105.33 6.7 105.66 5 106 C5 103.03 5 100.06 5 97 C4.32533691 96.98541748 3.65067383 96.97083496 2.95556641 96.95581055 C-0.15514582 96.88050417 -3.26487969 96.78412156 -6.375 96.6875 C-7.43589844 96.66494141 -8.49679688 96.64238281 -9.58984375 96.61914062 C-15.67673596 96.41375469 -20.99953337 95.71793198 -26.76806641 93.72973633 C-29.15781659 92.94840147 -31.52868204 92.45143322 -34 92 C-34.45375 92.94875 -34.9075 93.8975 -35.375 94.875 C-37 98 -37 98 -39 100 C-40.32 100 -41.64 100 -43 100 C-42.22095672 89.44191344 -42.22095672 89.44191344 -40 85 C-41.11375 84.62875 -41.11375 84.62875 -42.25 84.25 C-45.24840999 82.88708637 -46.87959545 81.49904822 -49 79 C-49.33 78.01 -49.66 77.02 -50 76 C-50.99 75.34 -51.98 74.68 -53 74 C-55.43541555 69.55010492 -56.48263877 65.06770711 -56 60 C-55.67 59.34 -55.34 58.68 -55 58 C-54.34 58 -53.68 58 -53 58 C-52.89042969 57.42894531 -52.78085937 56.85789063 -52.66796875 56.26953125 C-50.77338445 49.83237639 -45.63150554 44.30265599 -41.00390625 39.60546875 C-39.78412345 38.01988043 -39.78412345 38.01988043 -40.2109375 35.9296875 C-40.93830224 33.79572322 -40.93830224 33.79572322 -43.0625 31.9375 C-43.701875 31.298125 -44.34125 30.65875 -45 30 C-45 29.01 -45 28.02 -45 27 C-45.66 27 -46.32 27 -47 27 C-47 25.68 -47 24.36 -47 23 C-44.4375 22.5625 -44.4375 22.5625 -41 23 C-39.21875 24.59375 -39.21875 24.59375 -37.4375 26.5625 C-34.96638219 29.46592748 -34.96638219 29.46592748 -31.375 30.1875 C-28.92797438 29.06766043 -28.92797438 29.06766043 -26.8125 27.25 C-19.80850079 21.64680064 -10.06367668 17 -1 17 C-1.01160156 16.02417969 -1.02320313 15.04835938 -1.03515625 14.04296875 C-1.04417969 12.77066406 -1.05320313 11.49835937 -1.0625 10.1875 C-1.07410156 8.92292969 -1.08570313 7.65835937 -1.09765625 6.35546875 C-1 3 -1 3 0 0 Z M-17 30 C-17 30.66 -17 31.32 -17 32 C-18.546875 32.0928125 -18.546875 32.0928125 -20.125 32.1875 C-24.92037605 33.19298207 -26.43175232 34.75613847 -30 38 C-30.99 38.33 -31.98 38.66 -33 39 C-34.56618444 40.69102522 -36.05780525 42.45206388 -37.5 44.25 C-38.66015625 45.68085937 -38.66015625 45.68085937 -39.84375 47.140625 C-42.61634132 50.81732219 -44.90469161 54.47758576 -46.625 58.75 C-48 62 -48 62 -49 63 C-49.50059916 65.41482413 -49.50059916 65.41482413 -49 68 C-46.76441969 69.59240659 -46.76441969 69.59240659 -44 71 C-41.44298135 73.42916771 -39.05013226 75.94444804 -36.6875 78.5625 C-33.39368183 81.54991648 -30.04058115 83.22438129 -26 85 C-24.95577881 85.5057959 -23.91155762 86.0115918 -22.83569336 86.53271484 C-17.05863037 88.99460799 -10.88616747 88.51957963 -4.71459961 88.50097656 C-2.46659741 88.50001248 -0.22211285 88.54151556 2.02539062 88.5859375 C14.64215954 88.69172847 25.33574192 85.89951202 36.0625 78.9375 C37.08472656 78.28652344 38.10695313 77.63554688 39.16015625 76.96484375 C44.88815705 73.41109425 44.88815705 73.41109425 47.8125 67.75 C47.9053125 66.38875 47.9053125 66.38875 48 65 C48.99 64.67 49.98 64.34 51 64 C52.30037925 61.15974376 52.30037925 61.15974376 53.25 57.75 C53.60578125 56.61046875 53.9615625 55.4709375 54.328125 54.296875 C55.20924671 49.97323127 54.38285453 47.2579506 53.125 43.125 C50.27876625 38.93936214 46.72664673 37.03757369 42.3984375 34.515625 C40 33 40 33 39 31 C37.34015202 30.31653318 35.67163195 29.65411685 34 29 C32.84664554 28.32519354 31.70114315 27.63684402 30.5625 26.9375 C27.42553465 25.08696562 24.65569509 24.35665318 21 24 C21 23.34 21 22.68 21 22 C6.55450197 21.64909721 -4.102363 22.8421491 -17 30 Z " fill="#481C6B" transform="translate(66,18)"/>
<path d="M0 0 C5.36175854 0.07696304 9.00529685 1.75663466 12.9375 5.375 C16.73448362 11.18913117 16.77005711 17.57901056 15.9375 24.375 C13.746583 28.94734852 10.07759918 30.79189769 5.51171875 32.6484375 C0.00455029 34.20281282 -5.58588894 34.34410867 -10.9375 32.25 C-17.69592215 26.28668633 -17.69592215 26.28668633 -18.48046875 22.1953125 C-18.71116243 15.66997705 -16.60575363 11.25457495 -12.6875 6.125 C-10.11600125 3.43104893 -8.55570278 2.44236752 -5.0625 1.375 C-3.53198354 -0.15551646 -2.1300065 0.09499171 0 0 Z " fill="#532776" transform="translate(71.0625,53.625)"/>
<path d="M0 0 C10.11246831 -0.26181148 10.11246831 -0.26181148 14.1328125 2.42578125 C18.26154923 7.24264077 18.80824271 12.08796913 18.44140625 18.29296875 C17.82711383 22.06026653 17.02919028 23.63575393 14 26 C7.62089405 29.98363255 1.43175932 30.96161742 -6 30 C-10.29821189 28.318091 -13.87265941 25.14831416 -16 21 C-16.39880732 17.94912397 -16.30560912 15.05609116 -16 12 C-15.67 12 -15.34 12 -15 12 C-14.34 14.97 -13.68 17.94 -13 21 C-12.34 18.36 -11.68 15.72 -11 13 C-10.67 13 -10.34 13 -10 13 C-9.81824219 13.93972656 -9.81824219 13.93972656 -9.6328125 14.8984375 C-9.46523438 15.71570313 -9.29765625 16.53296875 -9.125 17.375 C-8.96257813 18.18710938 -8.80015625 18.99921875 -8.6328125 19.8359375 C-8.13341068 22.18673923 -8.13341068 22.18673923 -6 24 C-3.33757179 24.46290221 -3.33757179 24.46290221 -0.375 24.625 C0.62789062 24.69976562 1.63078125 24.77453125 2.6640625 24.8515625 C3.43492188 24.90054688 4.20578125 24.94953125 5 25 C5 24.34 5 23.68 5 23 C6.16136708 22.09060034 7.35442282 21.22136327 8.5625 20.375 C11.25343968 18.16163592 11.25343968 18.16163592 12.453125 15.00390625 C12.17083621 10.85582932 11.17207044 9.18807699 8.3125 6.0625 C5.01148993 4.00715411 2.84106877 3.27436205 -1 3 C-0.67 2.01 -0.34 1.02 0 0 Z " fill="#4F2270" transform="translate(69,57)"/>
<path d="M0 0 C0 0.99 0 1.98 0 3 C-0.92232422 2.96519531 -0.92232422 2.96519531 -1.86328125 2.9296875 C-2.67152344 2.91164063 -3.47976562 2.89359375 -4.3125 2.875 C-5.51326172 2.84019531 -5.51326172 2.84019531 -6.73828125 2.8046875 C-9.28388576 2.84182678 -9.28388576 2.84182678 -12 5 C-12.53530329 9.65931611 -12.53530329 9.65931611 -10.8125 13.875 C-8.5774211 15.26229035 -6.59094622 15.64987213 -4 16 C-4 15.34 -4 14.68 -4 14 C-5.32 14 -6.64 14 -8 14 C-10 11 -10 11 -9.625 8.3125 C-9.41875 7.549375 -9.2125 6.78625 -9 6 C-6.625 5.875 -6.625 5.875 -4 6 C-1.8614515 8.1385485 -1.57344937 9.13275314 -1 12 C-0.01 11.67 0.98 11.34 2 11 C2 9.02 2 7.04 2 5 C5 7 5 7 5.5 9.3125 C4.79492967 13.10225305 2.90444694 14.57962755 0 17 C-0.66 17 -1.32 17 -2 17 C-2 17.66 -2 18.32 -2 19 C-11.99003559 19.77508897 -11.99003559 19.77508897 -15.6875 16.9375 C-17.68298811 12.47140757 -17.40250078 8.96778159 -16.4375 4.25 C-14.73564737 1.58623066 -12.96317264 0.53506927 -10.01953125 -0.57421875 C-6.50823281 -1.31451184 -3.50048007 -0.67553124 0 0 Z " fill="#744A93" transform="translate(76,63)"/>
<path d="M0 0 C3.33555941 0.50176548 6.40931023 1.43807651 9.59375 2.5234375 C15.23782875 4.24638884 20.62999509 4.51424519 26.5 4.625 C28.4480203 4.67586215 30.39595014 4.73036168 32.34375 4.7890625 C33.19130859 4.80662598 34.03886719 4.82418945 34.91210938 4.84228516 C37 5 37 5 39 6 C39 8.97 39 11.94 39 15 C43.20180184 14.4260261 43.20180184 14.4260261 45 11 C44.67 12.65 44.34 14.3 44 16 C41.625 16.625 41.625 16.625 39 17 C36.4345406 14.4345406 36.45953913 12.52313332 36 9 C33.1915088 8.06383627 31.34451285 7.85251686 28.4296875 7.7890625 C27.5325 7.76070313 26.6353125 7.73234375 25.7109375 7.703125 C23.84393355 7.65169238 21.97672221 7.60723744 20.109375 7.5703125 C14.5754741 7.38111931 10.02593348 6.620503 4.87939453 4.53662109 C2.80224177 3.7522848 2.80224177 3.7522848 0 5 C-0.598125 5.845625 -1.19625 6.69125 -1.8125 7.5625 C-4 10 -4 10 -7.25 10.3125 C-8.1575 10.209375 -9.065 10.10625 -10 10 C-10.80967438 7.08517222 -11.21845993 5.53886783 -10.0625 2.6875 C-9.711875 2.130625 -9.36125 1.57375 -9 1 C-7.56911472 3.86177057 -8.40008303 5.93375773 -9 9 C-6.55721737 8.42557356 -6.55721737 8.42557356 -4 7 C-2.21620585 4.01647106 -2.21620585 4.01647106 -1 1 C-0.67 0.67 -0.34 0.34 0 0 Z " fill="#7F4E9C" transform="translate(32,109)"/>
<path d="M0 0 C2.475 0.495 2.475 0.495 5 1 C5 1.66 5 2.32 5 3 C5.66 3 6.32 3 7 3 C7.33 6.96 7.66 10.92 8 15 C9.14597656 14.96519531 10.29195312 14.93039063 11.47265625 14.89453125 C13.00258939 14.86637297 14.53253854 14.83907501 16.0625 14.8125 C17.19075195 14.77479492 17.19075195 14.77479492 18.34179688 14.73632812 C25.74701012 14.64015652 30.75068092 17.02316059 37 21 C36.01 21.495 36.01 21.495 35 22 C33.01171875 21.2578125 33.01171875 21.2578125 30.6875 20.125 C25.05418632 17.38963886 19.91411765 16.84484882 13.6875 16.4375 C12.43324219 16.35371094 11.17898437 16.26992188 9.88671875 16.18359375 C8.45779297 16.09271484 8.45779297 16.09271484 7 16 C6.79503906 15.30132812 6.59007813 14.60265625 6.37890625 13.8828125 C6.10949219 12.97273438 5.84007813 12.06265625 5.5625 11.125 C5.29566406 10.22007813 5.02882813 9.31515625 4.75390625 8.3828125 C4.07386174 6.01724619 4.07386174 6.01724619 3 4 C0.69939466 5.8628949 0.69939466 5.8628949 0.8046875 8.8203125 C0.82789062 9.91085938 0.85109375 11.00140625 0.875 12.125 C0.90207031 13.76855469 0.90207031 13.76855469 0.9296875 15.4453125 C0.95289062 16.28835937 0.97609375 17.13140625 1 18 C-1.66148345 19.01620277 -4.3270413 20.01476068 -7 21 C-7.79019531 21.29777344 -8.58039062 21.59554687 -9.39453125 21.90234375 C-10.17183594 22.18207031 -10.94914062 22.46179688 -11.75 22.75 C-12.46671875 23.01296875 -13.1834375 23.2759375 -13.921875 23.546875 C-16.29387831 24.06407873 -17.71972362 23.76009213 -20 23 C-13.62704304 19.82523652 -8.15062486 17.40475235 -1 17 C-1.01160156 16.02417969 -1.02320312 15.04835938 -1.03515625 14.04296875 C-1.04417969 12.77066406 -1.05320312 11.49835937 -1.0625 10.1875 C-1.07410156 8.92292969 -1.08570312 7.65835937 -1.09765625 6.35546875 C-1 3 -1 3 0 0 Z " fill="#66328A" transform="translate(66,18)"/>
<path d="M0 0 C1.66611905 -0.042721 3.33382885 -0.04063832 5 0 C6 1 6 1 6.375 4.4375 C6.35490118 9.97472599 3.69526628 14.30253592 1 19 C1.91072266 19.38478516 1.91072266 19.38478516 2.83984375 19.77734375 C5.23142595 21.13098793 6.10912296 22.26491715 7.5625 24.5625 C9.50563298 27.64072209 9.50563298 27.64072209 13 29 C16.07590514 34.9144082 16.02653948 41.64366221 14.1015625 47.9375 C13.14097619 50.33555945 12.12878693 52.67691618 11 55 C10.1293221 52.56210188 9.78887249 51.46224833 10.88671875 49.05859375 C11.25410156 48.37925781 11.62148437 47.69992188 12 47 C13.01140737 42.32319149 13.66279124 38.3832165 11.5625 34 C11.046875 33.34 10.53125 32.68 10 32 C10 31.34 10 30.68 10 30 C9.01 29.67 8.02 29.34 7 29 C5.2109375 27.1875 5.2109375 27.1875 3.375 25 C2.45847656 23.9171875 2.45847656 23.9171875 1.5234375 22.8125 C1.02070312 22.214375 0.51796875 21.61625 0 21 C-0.33 20.67 -0.66 20.34 -1 20 C-1.04063832 18.33382885 -1.042721 16.66611905 -1 15 C-0.34 15 0.32 15 1 15 C1.99 10.71 2.98 6.42 4 2 C0.76524552 3.61737724 -0.70572021 4.47629223 -3 7 C-1.125 2.25 -1.125 2.25 0 0 Z " fill="#703B90" transform="translate(114,28)"/>
<path d="M0 0 C10.11246831 -0.26181148 10.11246831 -0.26181148 14.1328125 2.42578125 C18.39123465 7.39394042 18.57122505 12.1997328 18.30859375 18.55859375 C18 21 18 21 17 22 C15.35 22 13.7 22 12 22 C12.66 18.7 13.32 15.4 14 12 C13.34 12 12.68 12 12 12 C11.54625 11.236875 11.0925 10.47375 10.625 9.6875 C8.93295965 6.88912557 7.81722936 5.60984535 5 4 C1.84881675 3.27954633 1.84881675 3.27954633 -1 3 C-0.67 2.01 -0.34 1.02 0 0 Z " fill="#49196B" transform="translate(69,57)"/>
<path d="M0 0 C0 0.99 0 1.98 0 3 C-0.92232422 2.96519531 -0.92232422 2.96519531 -1.86328125 2.9296875 C-2.67152344 2.91164063 -3.47976562 2.89359375 -4.3125 2.875 C-5.51326172 2.84019531 -5.51326172 2.84019531 -6.73828125 2.8046875 C-9.28388576 2.84182678 -9.28388576 2.84182678 -12 5 C-12.50007794 8.45786015 -12.50007794 8.45786015 -12 12 C-10.5833253 13.7511573 -10.5833253 13.7511573 -9 15 C-9 15.99 -9 16.98 -9 18 C-11.875 17.6875 -11.875 17.6875 -15 17 C-17.47717167 13.28424249 -17.30345742 11.40013262 -17 7 C-16.4375 4.25 -16.4375 4.25 -15 2 C-9.57313576 -1.25611854 -6.13200942 -1.18337024 0 0 Z " fill="#774C97" transform="translate(76,63)"/>
<path d="M0 0 C5.30784489 0.0593529 9.01851855 1.82971116 12.9375 5.375 C14.4375 8.1875 14.4375 8.1875 14.9375 10.375 C14.36 9.570625 13.7825 8.76625 13.1875 7.9375 C9.71110805 4.48086028 5.73503409 4.38882721 1.01953125 4.15625 C-2.92307763 4.43608029 -5.78523733 5.57650375 -9.22265625 7.46484375 C-11.0625 8.375 -11.0625 8.375 -14.0625 8.375 C-11.38437053 4.60578075 -9.46774374 2.8037277 -5.0625 1.375 C-3.53198354 -0.15551646 -2.1300065 0.09499171 0 0 Z " fill="#5D277D" transform="translate(71.0625,53.625)"/>
<path d="M0 0 C2.62506802 -0.02690844 5.24986173 -0.04679404 7.875 -0.0625 C8.62136719 -0.07087891 9.36773437 -0.07925781 10.13671875 -0.08789062 C15.7734375 -0.11328125 15.7734375 -0.11328125 18 1 C18 3.97 18 6.94 18 10 C22.20180184 9.4260261 22.20180184 9.4260261 24 6 C23.67 7.65 23.34 9.3 23 11 C20.625 11.625 20.625 11.625 18 12 C16 10 16 10 15 4 C10.05 3.01 5.1 2.02 0 1 C0 0.67 0 0.34 0 0 Z " fill="#754591" transform="translate(53,114)"/>
<path d="M0 0 C0.33 0.66 0.66 1.32 1 2 C0.525625 2.763125 0.05125 3.52625 -0.4375 4.3125 C-2.16015928 7.27547397 -2.70568289 8.64800627 -2 12 C0.44496043 13.71711243 0.44496043 13.71711243 3 15 C3 15.66 3 16.32 3 17 C3.556875 17.226875 4.11375 17.45375 4.6875 17.6875 C7.62504721 19.35475652 9.61811438 21.61811438 12 24 C14.16620544 25.29519995 14.16620544 25.29519995 16 26 C15.34 26.33 14.68 26.66 14 27 C9.91226589 25.01137259 7.18378769 22.18378769 4 19 C3.01 18.67 2.02 18.34 1 18 C1 17.34 1 16.68 1 16 C0.360625 15.690625 -0.27875 15.38125 -0.9375 15.0625 C-3 14 -3 14 -4 13 C-4.38597926 7.98226959 -3.99772561 5.07690683 -1 1 C-0.67 0.67 -0.34 0.34 0 0 Z " fill="#7B4699" transform="translate(20,74)"/>
<path d="M0 0 C0.33 0 0.66 0 1 0 C1.66 2.97 2.32 5.94 3 9 C3.66 6.36 4.32 3.72 5 1 C5.33 1 5.66 1 6 1 C6.12117188 1.62648438 6.24234375 2.25296875 6.3671875 2.8984375 C6.53476562 3.71570313 6.70234375 4.53296875 6.875 5.375 C7.03742187 6.18710938 7.19984375 6.99921875 7.3671875 7.8359375 C7.86658932 10.18673923 7.86658932 10.18673923 10 12 C12.20250992 12.46006346 12.20250992 12.46006346 14.625 12.625 C15.85089844 12.73714844 15.85089844 12.73714844 17.1015625 12.8515625 C17.72804688 12.90054688 18.35453125 12.94953125 19 13 C19 13.33 19 13.66 19 14 C17.39620659 14.05416188 15.79188594 14.09286638 14.1875 14.125 C13.29417969 14.14820312 12.40085937 14.17140625 11.48046875 14.1953125 C9 14 9 14 6 12 C6.33 12.99 6.66 13.98 7 15 C5 15 5 15 2.375 12.5625 C-0.82060585 8.65467701 -0.48279288 4.82792879 0 0 Z " fill="#572776" transform="translate(53,69)"/>
<path d="M0 0 C0.66 0 1.32 0 2 0 C2.33 3.96 2.66 7.92 3 12 C4.14597656 11.96519531 5.29195313 11.93039063 6.47265625 11.89453125 C8.00258939 11.86637297 9.53253854 11.83907501 11.0625 11.8125 C12.19075195 11.77479492 12.19075195 11.77479492 13.34179688 11.73632812 C20.74701012 11.64015652 25.75068092 14.02316059 32 18 C31.34 18.33 30.68 18.66 30 19 C28.01171875 18.2578125 28.01171875 18.2578125 25.6875 17.125 C20.05418632 14.38963886 14.91411765 13.84484882 8.6875 13.4375 C7.43324219 13.35371094 6.17898437 13.26992188 4.88671875 13.18359375 C3.93410156 13.12300781 2.98148437 13.06242187 2 13 C1.34 8.71 0.68 4.42 0 0 Z " fill="#7C3E9A" transform="translate(71,21)"/>
<path d="M0 0 C1.66611905 -0.042721 3.33382885 -0.04063832 5 0 C6 1 6 1 6.375 4.4375 C6.35490118 9.97472599 3.69526628 14.30253592 1 19 C-0.46257541 14.53426976 1.10551963 12.22614851 3 8 C3.39764263 6.01178687 3.75455166 4.01267638 4 2 C1.11562221 3.29299694 -0.87219421 4.65941363 -3 7 C-1.125 2.25 -1.125 2.25 0 0 Z " fill="#8844A8" transform="translate(114,28)"/>
<path d="M0 0 C0.99 0.33 1.98 0.66 3 1 C5.22818441 1.06937062 7.45834524 1.08457084 9.6875 1.0625 C10.86699219 1.05347656 12.04648438 1.04445313 13.26171875 1.03515625 C14.16535156 1.02355469 15.06898437 1.01195313 16 1 C15.34 2.32 14.68 3.64 14 5 C10.04 5 6.08 5 2 5 C1.34 3.35 0.68 1.7 0 0 Z " fill="#441664" transform="translate(59,81)"/>
<path d="M0 0 C6.75 -0.125 6.75 -0.125 9 1 C9.1875 4.375 9.1875 4.375 9 8 C8.01 8.66 7.02 9.32 6 10 C5.34 7.36 4.68 4.72 4 2 C2.35 2 0.7 2 -1 2 C-0.67 1.34 -0.34 0.68 0 0 Z " fill="#4B2168" transform="translate(68,66)"/>
<path d="M0 0 C1.65 0.33 3.3 0.66 5 1 C5.33 3.64 5.66 6.28 6 9 C4 6 4 6 3 4 C0.69939466 5.8628949 0.69939466 5.8628949 0.8046875 8.8203125 C0.82789062 9.91085938 0.85109375 11.00140625 0.875 12.125 C0.89304687 13.22070312 0.91109375 14.31640625 0.9296875 15.4453125 C0.95289062 16.28835937 0.97609375 17.13140625 1 18 C0.67 18 0.34 18 0 18 C-1.00051595 11.99690429 -1.96006223 5.88018669 0 0 Z " fill="#521E79" transform="translate(66,18)"/>
<path d="M0 0 C-0.33 0.66 -0.66 1.32 -1 2 C-2.66321482 2.35015049 -4.33034549 2.68197057 -6 3 C-6.99 3.66 -7.98 4.32 -9 5 C-11.04705225 5.59739945 -13.11233108 6.13409983 -15.1875 6.625 C-16.27417969 6.88539062 -17.36085938 7.14578125 -18.48046875 7.4140625 C-19.31191406 7.60742188 -20.14335938 7.80078125 -21 8 C-18.6858779 5.32009731 -16.75647693 4.401276 -13.375 3.4375 C-11.01593777 2.79864318 -11.01593777 2.79864318 -9 2 C-8.67 1.34 -8.34 0.68 -8 0 C-4.71023192 -1.09658936 -3.28696233 -0.79953138 0 0 Z " fill="#7A4B98" transform="translate(110,103)"/>
<path d="M0 0 C2.5625 0.1875 2.5625 0.1875 4.5625 2.1875 C4.5625 3.1775 4.5625 4.1675 4.5625 5.1875 C2.2525 5.5175 -0.0575 5.8475 -2.4375 6.1875 C-2.81968767 4.53135343 -3.15145102 2.86292976 -3.4375 1.1875 C-2.4375 0.1875 -2.4375 0.1875 0 0 Z " fill="#B690D3" transform="translate(69.4375,68.8125)"/>
<path d="M0 0 C0.66 0.33 1.32 0.66 2 1 C-3.39729315 5.90663014 -7.19400531 6.54133997 -14.42578125 6.46875 C-15.27527344 6.3140625 -16.12476563 6.159375 -17 6 C-17.66 5.01 -18.32 4.02 -19 3 C-18.13117187 3.03480469 -17.26234375 3.06960937 -16.3671875 3.10546875 C-7.71879701 3.32411153 -7.71879701 3.32411153 0 0 Z " fill="#864CA2" transform="translate(80,83)"/>
<path d="M0 0 C0.33 0 0.66 0 1 0 C1.66 2.97 2.32 5.94 3 9 C4.32 9 5.64 9 7 9 C7 9.66 7 10.32 7 11 C3.72965541 11.36337162 2.39116247 11.28544288 -0.3125 9.3125 C-2 7 -2 7 -2.375 4.375 C-2 2 -2 2 0 0 Z " fill="#4C2168" transform="translate(65,68)"/>
<path d="M0 0 C5.25334184 0.11881549 8.99624155 1.92859871 12.875 5.4375 C14.375 8.25 14.375 8.25 14.875 10.4375 C13.8540625 9.2928125 13.8540625 9.2928125 12.8125 8.125 C8.78133712 4.43691481 5.11606519 2.56679222 -0.375 2.25 C-1.73625 2.3428125 -1.73625 2.3428125 -3.125 2.4375 C-4.115 2.4375 -5.105 2.4375 -6.125 2.4375 C-3.78739424 0.09989424 -3.19241017 0.09454873 0 0 Z " fill="#783D95" transform="translate(71.125,53.5625)"/>
<path d="M0 0 C3 2 3 2 3.5 4.3125 C2.80272228 8.06036772 0.80728166 9.54362855 -2 12 C-2.99 11.67 -3.98 11.34 -5 11 C-4.360625 10.29875 -3.72125 9.5975 -3.0625 8.875 C-0.83613898 5.77158767 -0.34919057 3.75379861 0 0 Z " fill="#8B60AA" transform="translate(78,68)"/>
<path d="M0 0 C6.0018137 -0.21824777 11.19233704 0.4943096 17 2 C17 2.33 17 2.66 17 3 C15.10448978 3.05441656 13.2085208 3.09298035 11.3125 3.125 C10.25675781 3.14820312 9.20101562 3.17140625 8.11328125 3.1953125 C4.97748141 2.99858729 2.82354627 2.33057654 0 1 C0 0.67 0 0.34 0 0 Z " fill="#8A5BA6" transform="translate(39,113)"/>
<path d="M0 0 C5.68748885 1.25124755 8.72847508 3.04102568 13 7 C12.67 7.66 12.34 8.32 12 9 C10.18381144 7.88096454 8.37214474 6.75458716 6.5625 5.625 C5.55316406 4.99851562 4.54382813 4.37203125 3.50390625 3.7265625 C1 2 1 2 0 0 Z " fill="#5F2E81" transform="translate(105,50)"/>
<path d="M0 0 C0.33 0.66 0.66 1.32 1 2 C0.525625 2.763125 0.05125 3.52625 -0.4375 4.3125 C-2.16746892 7.28804654 -2.51865395 8.62874933 -2 12 C-0.60042803 14.28484306 -0.60042803 14.28484306 1 16 C-2.875 14.125 -2.875 14.125 -4 13 C-4.38597926 7.98226959 -3.99772561 5.07690683 -1 1 C-0.67 0.67 -0.34 0.34 0 0 Z " fill="#703D91" transform="translate(20,74)"/>
<path d="M0 0 C0.99 1.485 0.99 1.485 2 3 C3.299375 4.2684375 3.299375 4.2684375 4.625 5.5625 C7 8 7 8 7 10 C1.125 9.125 1.125 9.125 0 8 C-0.14115161 5.32941149 -0.04247107 2.67567762 0 0 Z " fill="#8E62AC" transform="translate(60,71)"/>
<path d="M0 0 C1.60633173 4.01582932 0.52181826 7.08675304 -1 11 C-3.125 12.4375 -3.125 12.4375 -5 13 C-4.625 10.5625 -4.625 10.5625 -4 8 C-3.34 7.67 -2.68 7.34 -2 7 C-1.26924352 4.6859378 -0.59861742 2.35171131 0 0 Z " fill="#6D398B" transform="translate(118,75)"/>
<path d="M0 0 C0.33 0 0.66 0 1 0 C1 2.97 1 5.94 1 9 C0.01 8.67 -0.98 8.34 -2 8 C-2.125 5.125 -2.125 5.125 -2 2 C-1.34 1.34 -0.68 0.68 0 0 Z " fill="#390C57" transform="translate(74,115)"/>
<path d="M0 0 C-0.6796875 1.953125 -0.6796875 1.953125 -2 4 C-4.3828125 4.609375 -4.3828125 4.609375 -7.125 4.75 C-8.03507812 4.80671875 -8.94515625 4.8634375 -9.8828125 4.921875 C-10.58148438 4.94765625 -11.28015625 4.9734375 -12 5 C-8.45976076 2.63984051 -4.36489861 0 0 0 Z " fill="#592F7C" transform="translate(100,98)"/>
<path d="M0 0 C2.64 0.33 5.28 0.66 8 1 C8 1.99 8 2.98 8 4 C4.7 3.67 1.4 3.34 -2 3 C-1.34 2.01 -0.68 1.02 0 0 Z " fill="#865EA8" transform="translate(68,62)"/>
<path d="M0 0 C0 0.99 0 1.98 0 3 C-3.05263664 3.98120464 -4.94736336 3.98120464 -8 3 C-8 2.34 -8 1.68 -8 1 C-5.10765685 0.17361624 -3.11257569 0 0 0 Z " fill="#6D4389" transform="translate(76,74)"/>
<path d="M0 0 C0.66 0 1.32 0 2 0 C2 2.64 2 5.28 2 8 C0.68 8 -0.64 8 -2 8 C-1.34 5.36 -0.68 2.72 0 0 Z " fill="#3A1461" transform="translate(83,71)"/>
<path d="M0 0 C-3.72965139 2.03435531 -5.66905042 3 -10 3 C-9.67 2.01 -9.34 1.02 -9 0 C-5.62182575 -0.84454356 -3.32534757 -1.10844919 0 0 Z " fill="#814F9F" transform="translate(91,102)"/>
<path d="M0 0 C0.33 0 0.66 0 1 0 C1 2.31 1 4.62 1 7 C0.01 7 -0.98 7 -2 7 C-2.125 4.625 -2.125 4.625 -2 2 C-1.34 1.34 -0.68 0.68 0 0 Z " fill="#3D165D" transform="translate(65,68)"/>
<path d="M0 0 C2.475 0.495 2.475 0.495 5 1 C4.67 1.99 4.34 2.98 4 4 C2.68 4 1.36 4 0 4 C0 2.68 0 1.36 0 0 Z " fill="#F2CDFC" transform="translate(68,71)"/>
<path d="M0 0 C-2.88087546 2.40072955 -5.56404834 4.47291037 -9 6 C-4.625 -2.3125 -4.625 -2.3125 0 0 Z " fill="#965AB5" transform="translate(36,60)"/>
<path d="M0 0 C-0.99 0.33 -1.98 0.66 -3 1 C-3 1.66 -3 2.32 -3 3 C-4.65 3.33 -6.3 3.66 -8 4 C-5.97675095 -0.48005146 -4.79569304 -1.43870791 0 0 Z " fill="#68358B" transform="translate(52,47)"/>
<path d="M0 0 C4.03174806 0.27489191 5.56894631 0.53491576 8.375 3.5625 C8.91125 4.366875 9.4475 5.17125 10 6 C6.66666667 4.33333333 3.33333333 2.66666667 0 1 C0 0.67 0 0.34 0 0 Z " fill="#6A3288" transform="translate(93,43)"/>
<path d="M0 0 C2.475 0.495 2.475 0.495 5 1 C5.33 3.64 5.66 6.28 6 9 C4 6 4 6 3 3 C2.01 2.67 1.02 2.34 0 2 C0 1.34 0 0.68 0 0 Z " fill="#69278C" transform="translate(66,18)"/>
</svg>
